<svg width="34" height="18" viewBox="0 0 34 18" fill="none" xmlns="http://www.w3.org/2000/svg">
<path d="M6 1C6 0.447715 6.44772 0 7 0H33C33.5523 0 34 0.447715 34 1C34 1.55228 33.5523 2 33 2H7C6.44771 2 6 1.55228 6 1Z" fill="white"/>
<path d="M0 9C0 8.44772 0.447715 8 1 8H27C27.5523 8 28 8.44772 28 9C28 9.55228 27.5523 10 27 10H1C0.447715 10 0 9.55228 0 9Z" fill="white"/>
<path d="M6 17C6 16.4477 6.44772 16 7 16H33C33.5523 16 34 16.4477 34 17C34 17.5523 33.5523 18 33 18H7C6.44771 18 6 17.5523 6 17Z" fill="white"/>
</svg>
